<svg width="318" height="157" viewBox="0 0 318 157" fill="none" xmlns="http://www.w3.org/2000/svg">
<g filter="url(#filter0_b_75_302)">
<path fill-rule="evenodd" clip-rule="evenodd" d="M317 1H1V134.359H257.69L286.264 155.103V134.359H317V1Z" fill="white" fill-opacity="0.1"/>
<path d="M1 1V0.5H0.5V1H1ZM317 1H317.5V0.5H317V1ZM1 134.359H0.5V134.859H1V134.359ZM257.69 134.359L257.984 133.954L257.852 133.859H257.69V134.359ZM286.264 155.103L285.971 155.508L286.764 156.084V155.103H286.264ZM286.264 134.359V133.859H285.764V134.359H286.264ZM317 134.359V134.859H317.5V134.359H317ZM1 1.5H317V0.5H1V1.5ZM1.5 134.359V1H0.5V134.359H1.5ZM257.69 133.859H1V134.859H257.69V133.859ZM286.558 154.699L257.984 133.954L257.396 134.763L285.971 155.508L286.558 154.699ZM285.764 134.359V155.103H286.764V134.359H285.764ZM317 133.859H286.264V134.859H317V133.859ZM316.5 1V134.359H317.5V1H316.5Z" fill="#ECE8E1"/>
</g>
<defs>
<filter id="filter0_b_75_302" x="-19.5" y="-19.5" width="357" height="195.584" filterUnits="userSpaceOnUse" color-interpolation-filters="sRGB">
<feFlood flood-opacity="0" result="BackgroundImageFix"/>
<feGaussianBlur in="BackgroundImageFix" stdDeviation="10"/>
<feComposite in2="SourceAlpha" operator="in" result="effect1_backgroundBlur_75_302"/>
<feBlend mode="normal" in="SourceGraphic" in2="effect1_backgroundBlur_75_302" result="shape"/>
</filter>
</defs>
</svg>
