<svg width="338" height="177" viewBox="0 0 338 177" fill="none" xmlns="http://www.w3.org/2000/svg">
<g filter="url(#filter0_d_75_301)">
<g filter="url(#filter1_b_75_301)">
<path fill-rule="evenodd" clip-rule="evenodd" d="M327 7H11V140.359H267.69L296.264 161.103V140.359H327V7Z" fill="white" fill-opacity="0.1"/>
<path d="M11 7V6.5H10.5V7H11ZM327 7H327.5V6.5H327V7ZM11 140.359H10.5V140.859H11V140.359ZM267.69 140.359L267.984 139.954L267.852 139.859H267.69V140.359ZM296.264 161.103L295.971 161.508L296.764 162.084V161.103H296.264ZM296.264 140.359V139.859H295.764V140.359H296.264ZM327 140.359V140.859H327.5V140.359H327ZM11 7.5H327V6.5H11V7.5ZM11.5 140.359V7H10.5V140.359H11.5ZM267.69 139.859H11V140.859H267.69V139.859ZM296.558 160.699L267.984 139.954L267.396 140.763L295.971 161.508L296.558 160.699ZM295.764 140.359V161.103H296.764V140.359H295.764ZM327 139.859H296.264V140.859H327V139.859ZM326.5 7V140.359H327.5V7H326.5Z" fill="#ECE8E1"/>
</g>
<path d="M53.9629 33.5635V39.665H56.6699V41.6416H53.9629V48.0654H51.5781V33.5635H53.9629ZM38.666 37.624V35.7119H43.2422V33.542H45.627V35.7119H50.1816V37.624H38.666ZM39.6543 42.1357C39.6543 39.9014 41.5986 38.4189 44.4238 38.4189C47.2275 38.4189 49.1611 39.9014 49.1719 42.1357C49.1611 44.3594 47.2275 45.8096 44.4238 45.8096C41.5986 45.8096 39.6543 44.3594 39.6543 42.1357ZM41.5234 52.5771V46.9268H43.9082V50.6436H54.7363V52.5771H41.5234ZM41.9746 42.1357C41.9639 43.3066 42.9521 43.9727 44.4238 43.9619C45.8955 43.9727 46.8945 43.3066 46.8945 42.1357C46.8945 40.9541 45.8955 40.2666 44.4238 40.2666C42.9521 40.2666 41.9639 40.9541 41.9746 42.1357ZM73.9219 33.542V45.0791H71.5371V40.3311H68.2285V38.376H71.5371V33.542H73.9219ZM57.5938 43.1455C60.7197 42.0713 62.3633 39.4609 62.3633 36.8936V36.7432H58.3242V34.8096H68.8086V36.7432H64.791V36.8721C64.791 39.2354 66.3594 41.6201 69.3672 42.6299L68.1641 44.5205C66.0049 43.79 64.4795 42.3076 63.6201 40.4814C62.7715 42.5439 61.1494 44.2197 58.8398 45.0361L57.5938 43.1455ZM60.752 49.2686C60.7305 46.9375 63.2549 45.5732 67.3477 45.5732C71.4619 45.5732 73.9756 46.9375 73.9863 49.2686C73.9756 51.5996 71.4619 52.9531 67.3477 52.9639C63.2549 52.9531 60.7305 51.5996 60.752 49.2686ZM63.1152 49.2686C63.1045 50.4717 64.6514 51.127 67.3477 51.1162C70.0654 51.127 71.6016 50.4717 71.6016 49.2686C71.6016 48.0547 70.0654 47.3994 67.3477 47.3994C64.6514 47.3994 63.1045 48.0547 63.1152 49.2686ZM87.6074 35.2393V37.1514H85.9102V42.8984C86.7588 42.8232 87.5859 42.748 88.3809 42.6514L88.5527 44.4131C84.6426 45.0684 80.1738 45.1436 76.8867 45.1436L76.6289 43.21C77.3271 43.21 78.0791 43.1992 78.8633 43.1885V37.1514H77.1445V35.2393H87.6074ZM79.5508 52.5771V46.4971H81.9355V50.6436H92.7637V52.5771H79.5508ZM81.1621 43.1348C81.957 43.1133 82.7734 43.0811 83.5898 43.0381V37.1514H81.1621V43.1348ZM89.6055 47.8506V33.5635H91.9902V39.1709H94.6973V41.1689H91.9902V47.8506H89.6055ZM118.609 43.3818V45.3154H100.906V43.3818H108.555V41.3193H110.918V43.3818H118.609ZM101.744 40.4385C105.762 40.1699 108.05 38.8379 108.361 37.2373H102.646V35.3467H108.555V33.585H110.918V35.3467H116.869V37.2373H111.101C111.401 38.8379 113.7 40.1699 117.729 40.4385L116.998 42.2646C113.528 41.9961 110.939 40.9111 109.736 39.2354C108.512 40.9111 105.934 41.9961 102.475 42.2646L101.744 40.4385ZM102.969 49.6768C102.969 47.5498 105.482 46.4004 109.736 46.3896C113.969 46.4004 116.45 47.5498 116.461 49.6768C116.45 51.793 113.969 52.9424 109.736 52.9424C105.482 52.9424 102.969 51.793 102.969 49.6768ZM105.396 49.6768C105.386 50.665 106.879 51.1592 109.736 51.1592C112.54 51.1592 114.055 50.665 114.076 49.6768C114.055 48.6777 112.54 48.1729 109.736 48.1729C106.879 48.1729 105.386 48.6777 105.396 49.6768ZM136.141 33.542V52.9639H133.734V33.542H136.141ZM120.049 47.6143C125.141 45.1973 127.482 41.9102 127.912 37.4951H121.037V35.6045H130.34C130.34 41.3838 128.095 46.293 121.295 49.5264L120.049 47.6143ZM151.115 37.0439C151.115 39.418 152.651 41.6523 155.691 42.5869L154.553 44.4561C152.372 43.7686 150.825 42.3828 149.977 40.6318C149.117 42.6729 147.484 44.2949 145.143 45.0791L143.939 43.1885C147.065 42.168 148.709 39.6436 148.709 37.0654V36.8291H144.605V34.8955H155.154V36.8291H151.115V37.0439ZM146.582 49.2256C146.582 46.9053 149.096 45.5518 153.156 45.5518C157.185 45.5518 159.655 46.9053 159.666 49.2256C159.655 51.5674 157.185 52.9424 153.156 52.9424C149.096 52.9424 146.582 51.5674 146.582 49.2256ZM148.967 49.2256C148.967 50.4287 150.492 51.0625 153.156 51.0732C155.81 51.0625 157.303 50.4287 157.303 49.2256C157.303 48.0439 155.81 47.4209 153.156 47.4209C150.492 47.4209 148.967 48.0439 148.967 49.2256ZM157.088 45.1221V33.542H159.473V38.2041H162.18V40.1592H159.473V45.1221H157.088ZM170.408 36.3135C170.397 38.8701 172.009 41.2764 175.092 42.2432L173.91 44.1338C171.676 43.3926 170.075 41.9102 169.194 40.0088C168.324 42.0498 166.691 43.6719 164.393 44.4561L163.189 42.5869C166.326 41.5234 167.948 38.9453 167.938 36.3135V34.4658H170.408V36.3135ZM166.09 47.958V46.0459H179.346V52.9639H176.939V47.958H166.09ZM176.939 45.165V33.542H179.346V45.165H176.939ZM199.906 44.8428V46.7334H192.172V52.9639H189.809V46.7334H182.16V44.8428H199.906ZM184.309 42.8232V34.3154H186.672V36.7002H195.352V34.3154H197.758V42.8232H184.309ZM186.672 40.8896H195.352V38.5908H186.672V40.8896ZM217.48 33.542V52.9854H215.117V42.501H211.465V40.5674H215.117V33.542H217.48ZM202.076 48.5166V35.2178H211.164V37.1729H204.482V40.6533H210.391V42.5439H204.482V46.54C207.437 46.5293 209.649 46.4219 212.152 46.0244L212.389 47.958C209.563 48.3877 207.071 48.4951 203.602 48.5166H202.076ZM54.5 66.3252V68.1943C54.4785 70.6113 54.4785 73.3076 53.7266 77.3682L51.3203 77.1104C52.083 73.3291 52.083 70.5684 52.0938 68.2373H40.4922V66.3252H54.5ZM38.6445 81.4502V79.4951H45.1758V72.749H47.5391V79.4951H56.3477V81.4502H38.6445ZM62.1914 75.6064V77.8408H70.8066V75.6064H73.1699V83.7275H59.8496V75.6064H62.1914ZM57.6582 74.167V72.2549H70.3984C70.8066 70.2031 70.8496 68.6562 70.8496 67.292H59.8496V65.3799H73.2344V66.8838C73.2451 68.3662 73.2451 69.9775 72.7617 72.2549H75.4043V74.167H57.6582ZM62.1914 81.7939H70.8066V79.6885H62.1914V81.7939ZM98.6504 64.542V83.9639H96.373V64.542H98.6504ZM81.7422 78.1631C85.7598 75.7891 87.6074 72.749 87.9727 68.8389H82.7305V66.9053H90.3359C90.3359 68.7852 90.0996 70.5469 89.5732 72.1904H92.2695V65.0146H94.5254V83.04H92.2695V74.1025H88.7891C87.6611 76.3262 85.835 78.2705 83.0957 79.8604L81.7422 78.1631ZM117.062 64.542V83.9854H114.656V64.542H117.062ZM101.529 72.8135C101.519 68.624 103.656 65.96 106.6 65.96C109.511 65.96 111.659 68.624 111.67 72.8135C111.659 77.0352 109.511 79.6885 106.6 79.6885C103.656 79.6885 101.519 77.0352 101.529 72.8135ZM103.828 72.8135C103.828 75.7998 104.956 77.5293 106.6 77.54C108.232 77.5293 109.35 75.7998 109.35 72.8135C109.35 69.8486 108.232 68.1084 106.6 68.1084C104.956 68.1084 103.828 69.8486 103.828 72.8135ZM130.275 65.9385V74.5752H120.908V65.9385H130.275ZM122.885 80.1611C122.885 77.7656 125.431 76.3691 129.566 76.3799C133.595 76.3691 136.162 77.7656 136.162 80.1611C136.162 82.5459 133.595 83.9424 129.566 83.9424C125.431 83.9424 122.885 82.5459 122.885 80.1611ZM123.271 72.6416H127.912V67.8291H123.271V72.6416ZM125.291 80.1611C125.291 81.3965 126.806 82.0625 129.566 82.0732C132.241 82.0625 133.788 81.3965 133.777 80.1611C133.788 78.8936 132.241 78.249 129.566 78.249C126.806 78.249 125.291 78.8936 125.291 80.1611ZM133.691 76.0361V64.5635H136.098V76.0361H133.691ZM160.375 64.542V83.9639H157.969V64.542H160.375ZM144.283 78.6143C149.375 76.1973 151.717 72.9102 152.146 68.4951H145.271V66.6045H154.574C154.574 72.3838 152.329 77.293 145.529 80.5264L144.283 78.6143ZM168.475 65.96C171.096 65.96 173.04 68.1514 173.384 71.6963H177.09V64.542H179.453V83.9854H177.09V73.6299H173.405C173.147 77.3789 171.171 79.6885 168.475 79.6885C165.553 79.6885 163.479 77.0352 163.49 72.8135C163.479 68.624 165.553 65.96 168.475 65.96ZM165.789 72.8135C165.778 75.7998 166.874 77.5293 168.475 77.54C170.086 77.5293 171.171 75.7998 171.182 72.8135C171.171 69.8486 170.086 68.1084 168.475 68.1084C166.874 68.1084 165.778 69.8486 165.789 72.8135ZM197.672 64.542V72.2979H200.357V74.2744H197.672V83.9639H195.266V64.542H197.672ZM181.902 78.3994C184.631 75.499 185.533 72.416 185.727 68.5381H182.676V66.583H188.004C187.993 71.6748 187.273 75.9609 183.771 79.7529L181.902 78.3994ZM187.402 79.6885C190.174 76.3799 190.958 72.749 191.108 68.5381H188.648V66.583H193.375C193.364 71.8037 192.816 76.7881 189.314 80.999L187.402 79.6885ZM208.521 70.0635C208.521 73.2432 210.391 76.5947 213.527 77.9053L212.217 79.7959C209.918 78.7969 208.242 76.7666 207.351 74.2959C206.459 76.96 204.751 79.1943 202.484 80.2686L201.109 78.3994C204.171 76.9814 206.083 73.3613 206.094 70.0635V68.4307H201.818V66.4541H212.775V68.4307H208.521V70.0635ZM214.945 83.9639V64.542H217.352V83.9639H214.945ZM44.9395 113.267C41.6201 113.267 39.2461 111.462 39.1816 108.841H41.9961C42.0713 110.087 43.3174 110.914 44.9395 110.903C46.6475 110.914 47.8828 109.969 47.8828 108.583C47.8828 107.187 46.6797 106.188 44.6602 106.177H43.2637V104.028H44.6602C46.3145 104.028 47.4639 103.104 47.4531 101.751C47.4639 100.44 46.4756 99.5596 44.9609 99.5596C43.5 99.5596 42.2432 100.376 42.1895 101.687H39.5039C39.5684 99.0762 41.9424 97.2822 44.9824 97.2822C48.1406 97.2822 50.1816 99.2158 50.1602 101.601C50.1816 103.341 49.0215 104.598 47.3242 104.952V105.081C49.5156 105.371 50.7617 106.778 50.7402 108.733C50.7617 111.365 48.3018 113.267 44.9395 113.267ZM58.9258 113.267C55.1768 113.267 52.9424 110.366 52.9531 105.274C52.9424 100.204 55.1982 97.2822 58.9258 97.2822C62.6533 97.2822 64.8984 100.204 64.8984 105.274C64.8984 110.377 62.6641 113.267 58.9258 113.267ZM55.7676 105.274C55.7676 109.013 56.9707 110.914 58.9258 110.925C60.8701 110.914 62.084 109.013 62.084 105.274C62.0732 101.568 60.8701 99.6133 58.9258 99.6025C56.9814 99.6133 55.7783 101.568 55.7676 105.274ZM71.9023 96.96C73.6533 96.96 75.1035 97.9375 75.9736 99.6455H80.5176V95.542H82.8809V114.985H80.5176V107.638H76.1455C75.2969 109.571 73.7715 110.688 71.9023 110.688C68.9805 110.688 66.9072 108.035 66.918 103.813C66.9072 99.624 68.9805 96.96 71.9023 96.96ZM69.2168 103.813C69.2061 106.8 70.3018 108.529 71.9023 108.54C73.5137 108.529 74.5986 106.8 74.6094 103.813C74.5986 100.849 73.5137 99.1084 71.9023 99.1084C70.3018 99.1084 69.2061 100.849 69.2168 103.813ZM76.6504 101.601C76.79 102.277 76.8652 103.019 76.8652 103.813C76.8652 104.479 76.8115 105.113 76.7041 105.704H80.5176V101.601H76.6504ZM100.82 95.542V103.126H103.699V105.124H100.82V114.921H98.4355V95.542H100.82ZM85.502 109.614C90.2285 107.251 92.7852 103.964 93.2578 99.5381H86.5547V97.5615H95.6855C95.6748 103.266 93.3115 108.282 86.8555 111.462L85.502 109.614ZM111.949 101.063C111.949 104.243 113.818 107.595 116.955 108.905L115.645 110.796C113.346 109.797 111.67 107.767 110.778 105.296C109.887 107.96 108.179 110.194 105.912 111.269L104.537 109.399C107.599 107.981 109.511 104.361 109.521 101.063V99.4307H105.246V97.4541H116.203V99.4307H111.949V101.063ZM118.373 114.964V95.542H120.779V114.964H118.373ZM129.932 96.8955C133.015 96.8848 135.26 98.8291 135.281 101.579C135.26 104.34 133.015 106.273 129.932 106.284C126.881 106.273 124.593 104.34 124.604 101.579C124.593 98.8291 126.881 96.8848 129.932 96.8955ZM123.723 108.97C127.225 108.97 132.069 108.927 136.27 108.325L136.463 110.065C132.112 110.893 127.45 110.925 124.023 110.925L123.723 108.97ZM126.967 101.579C126.956 103.201 128.234 104.2 129.932 104.2C131.65 104.2 132.929 103.201 132.939 101.579C132.929 99.9678 131.661 98.958 129.932 98.958C128.234 98.958 126.956 99.9678 126.967 101.579ZM137.43 114.985V95.542H139.814V114.985H137.43ZM164.135 95.5635V106.907H161.75V104.759H157.131V102.825H161.75V100.741H157.313C156.089 103.824 153.253 105.983 149.031 107.165L148.064 105.274C152.608 104.05 155.036 101.74 155.401 98.8506H149.096V96.917H158.012C158.012 97.5938 157.958 98.2383 157.851 98.8506H161.75V95.5635H164.135ZM151.115 110.989C151.115 108.604 153.726 107.133 157.711 107.122C161.643 107.133 164.264 108.604 164.264 110.989C164.264 113.374 161.643 114.867 157.711 114.856C153.726 114.867 151.115 113.374 151.115 110.989ZM153.5 110.989C153.5 112.268 155.101 112.966 157.711 112.966C160.278 112.966 161.868 112.268 161.879 110.989C161.868 109.689 160.278 108.991 157.711 108.991C155.101 108.991 153.5 109.689 153.5 110.989ZM184.588 104.737V106.649H176.896V108.519H182.439V114.728H168.969V108.519H174.533V106.649H166.885V104.737H184.588ZM168.475 98.0342V96.1221H182.955V98.0342H180.291V101.364H182.848V103.298H168.582V101.364H171.139V98.0342H168.475ZM171.332 112.794H180.119V110.366H171.332V112.794ZM173.523 101.364H177.885V98.0342H173.523V101.364ZM203.301 97.0889V98.8506H191.807V97.0889H196.34V95.4346H198.725V97.0889H203.301ZM191.205 106.327C192.752 106.327 194.514 106.327 196.34 106.273V105.135C194.138 104.866 192.763 103.835 192.773 102.331C192.763 100.526 194.664 99.3984 197.564 99.4092C200.39 99.3984 202.334 100.526 202.334 102.331C202.334 103.846 200.905 104.877 198.725 105.146V106.188C200.368 106.102 202.012 105.973 203.559 105.769L203.73 107.401C199.562 108.11 194.976 108.164 191.527 108.175L191.205 106.327ZM193.955 111.312V109.442H207.318V114.964H204.912V111.312H193.955ZM195.072 102.331C195.062 103.126 196.028 103.599 197.564 103.577C199.036 103.599 200.046 103.126 200.057 102.331C200.046 101.472 199.036 101.01 197.564 101.021C196.028 101.01 195.062 101.472 195.072 102.331ZM204.912 108.647V95.585H207.318V108.647H204.912ZM227.857 104.802V106.735H210.133V104.802H227.857ZM212.088 110.538V108.626H225.709V115.007H223.346V110.538H212.088ZM212.303 103.062V96.2295H225.709V98.1416H214.688V101.149H225.881V103.062H212.303ZM249.578 95.542V103.126H252.457V105.124H249.578V114.921H247.193V95.542H249.578ZM234.26 109.614C238.986 107.251 241.543 103.964 242.016 99.5381H235.312V97.5615H244.443C244.433 103.266 242.069 108.282 235.613 111.462L234.26 109.614ZM269.086 100.591V102.524H255.68V95.8857H258.064V100.591H269.086ZM253.381 106.327V104.394H271.105V106.327H253.381ZM255.443 111.312C255.443 109.023 257.989 107.734 262.211 107.724C266.4 107.734 268.925 109.023 268.936 111.312C268.925 113.589 266.4 114.878 262.211 114.878C257.989 114.878 255.443 113.589 255.443 111.312ZM257.871 111.312C257.86 112.429 259.386 113.041 262.211 113.052C264.993 113.041 266.529 112.429 266.551 111.312C266.529 110.162 264.993 109.604 262.211 109.593C259.386 109.604 257.86 110.162 257.871 111.312ZM276.391 97.4971L276.154 108.476H273.727L273.469 97.4971H276.391ZM273.275 111.548C273.265 110.646 274.027 109.904 274.951 109.894C275.843 109.904 276.605 110.646 276.605 111.548C276.605 112.472 275.843 113.224 274.951 113.224C274.027 113.224 273.265 112.472 273.275 111.548Z" fill="#ECE8E1"/>
</g>
<defs>
<filter id="filter0_d_75_301" x="0.5" y="0.5" width="337" height="175.584" filterUnits="userSpaceOnUse" color-interpolation-filters="sRGB">
<feFlood flood-opacity="0" result="BackgroundImageFix"/>
<feColorMatrix in="SourceAlpha" type="matrix" values="0 0 0 0 0 0 0 0 0 0 0 0 0 0 0 0 0 0 127 0" result="hardAlpha"/>
<feOffset dy="4"/>
<feGaussianBlur stdDeviation="5"/>
<feComposite in2="hardAlpha" operator="out"/>
<feColorMatrix type="matrix" values="0 0 0 0 0 0 0 0 0 0 0 0 0 0 0 0 0 0 0.55 0"/>
<feBlend mode="normal" in2="BackgroundImageFix" result="effect1_dropShadow_75_301"/>
<feBlend mode="normal" in="SourceGraphic" in2="effect1_dropShadow_75_301" result="shape"/>
</filter>
<filter id="filter1_b_75_301" x="-9.5" y="-13.5" width="357" height="195.584" filterUnits="userSpaceOnUse" color-interpolation-filters="sRGB">
<feFlood flood-opacity="0" result="BackgroundImageFix"/>
<feGaussianBlur in="BackgroundImageFix" stdDeviation="10"/>
<feComposite in2="SourceAlpha" operator="in" result="effect1_backgroundBlur_75_301"/>
<feBlend mode="normal" in="SourceGraphic" in2="effect1_backgroundBlur_75_301" result="shape"/>
</filter>
</defs>
</svg>
